Exact Audio Copy V0.99 prebeta 5 from 4. May 2009

Отчёт EAC об извлечении, выполненном 3. июня 2009, 13:51

Unknown Artist / Unknown Title

Дисковод: Optiarc DVD RW AD-7200S   Adapter: 2  ID: 0

Режим чтения                 : Достоверность
Использование точного потока : Да
Отключение кэша аудио        : Да
Использование указателей C2  : Нет

Коррекция смещения при чтении                     : 48
Способность читать области Lead-in и Lead-out     : Нет
Заполнение пропущенных сэмплов тишиной            : Да
Удаление блоков с тишиной в начале и конце        : Нет
При вычислениях CRC использовались нулевые сэмплы : Да
Интерфейс                                         : Установленный внешний ASPI-интерфейс

Выходной формат          : Monkey's Audio (без потерь)
Выбранный битрейт        : Normal Lossless Compression
Качество                 : Высокий
Добавление ID3-тэга      : Да
Утилита сжатия           : C:\Program Files\Exact Audio Copy\MAC.exe


TOC извлечённого CD

     Трек |   Старт  | Длительность | Начальный сектор | Конечный сектор 
    ---------------------------------------------------------------------
       1  |  0:00.33 |    5:47.62   |          33      |      26119      
       2  |  5:48.20 |    4:04.53   |       26120      |      44472      
       3  |  9:52.73 |    4:32.72   |       44473      |      64944      
       4  | 14:25.70 |    4:52.25   |       64945      |      86869      
       5  | 19:18.20 |    4:43.28   |       86870      |     108122      
       6  | 24:01.48 |    3:45.47   |      108123      |     125044      
       7  | 27:47.20 |    3:50.05   |      125045      |     142299      
       8  | 31:37.25 |    4:32.60   |      142300      |     162759      
       9  | 36:10.10 |    4:03.28   |      162760      |     181012      


Характеристики диапазона извлечения и сообщения об ошибках

Выбранный диапазон

     Имя файла D:\Music\RIPs\ABBA\ABBA - 1977 - The Album\ABBA - 1977 - The Album.wav

     Пиковый уровень 91.3 %
     Качество диапазона 100.0 %
     CRC теста 0E60C59B
     CRC копии 0E60C59B
     Копирование... OK

Ошибок не произошло

Конец отчёта
